<?xml version="1.0" encoding="iso-8859-1"?>
<!-- Generator: Adobe Illustrator 19.0.0, SVG Export Plug-In . SVG Version: 6.00 Build 0)  -->
<svg version="1.1" id="Layer_1" fill="white" height="20pt" width="20pt"  xmlns="http://www.w3.org/2000/svg" xmlns:xlink="http://www.w3.org/1999/xlink" x="0px" y="0px"
	 viewBox="0 0 512 512" style="enable-background:new 0 0 512 512;" xml:space="preserve">
<g>
	<g>
		<g>
			<circle cx="426.667" cy="192" r="21.333"/>
			<path d="M469.333,106.667h-67.656c-8.552,0-16.583-3.333-22.635-9.375l-39-39c-10.073-10.073-23.469-15.625-37.719-15.625
				h-92.646c-14.25,0-27.646,5.552-37.719,15.625l-39,39c-6.052,6.042-14.083,9.375-22.635,9.375H42.667
				C19.135,106.667,0,125.802,0,149.333v277.333c0,23.531,19.135,42.667,42.667,42.667h426.667
				c23.531,0,42.667-19.135,42.667-42.667V149.333C512,125.802,492.865,106.667,469.333,106.667z M490.667,426.667
				c0,11.76-9.573,21.333-21.333,21.333H42.667c-11.76,0-21.333-9.573-21.333-21.333V149.333c0-11.76,9.573-21.333,21.333-21.333
				h67.656c14.25,0,27.646-5.552,37.719-15.625l39-39C193.094,67.333,201.125,64,209.677,64h92.646
				c8.552,0,16.583,3.333,22.635,9.375l39,39C374.031,122.448,387.427,128,401.677,128h67.656c11.76,0,21.333,9.573,21.333,21.333
				V426.667z"/>
			<path d="M256,128c-82.344,0-149.333,66.99-149.333,149.333S173.656,426.667,256,426.667s149.333-66.99,149.333-149.333
				S338.344,128,256,128z M255.997,149.333l-61.578,106.668l-35.631-61.719C182.281,166.823,217.109,149.333,255.997,149.333z
				 M231.372,234.667h49.251l24.637,42.669L280.63,320h-49.262l-24.63-42.661L231.372,234.667z M128,277.333
				c0-23.267,6.337-45.038,17.23-63.858L206.73,320h-71.263C130.72,306.632,128,292.311,128,277.333z M232.656,403.099
				c-37.303-6.91-68.91-30.021-87.339-61.766h122.996L232.656,403.099z M256.003,405.333l61.578-106.661l35.632,61.712
				C329.719,387.842,294.892,405.332,256.003,405.333z M384,277.333c0,23.267-6.339,45.038-17.232,63.858l-61.507-106.525h71.271
				C381.28,248.035,384,262.355,384,277.333z M243.688,213.333l35.658-61.766c37.303,6.91,68.909,30.021,87.337,61.766H243.688z"/>
		</g>
	</g>
</g>
<g>
</g>
<g>
</g>
<g>
</g>
<g>
</g>
<g>
</g>
<g>
</g>
<g>
</g>
<g>
</g>
<g>
</g>
<g>
</g>
<g>
</g>
<g>
</g>
<g>
</g>
<g>
</g>
<g>
</g>
</svg>
